<svg width="1024" height="1024" viewBox="0 0 1024 1024" fill="none" xmlns="http://www.w3.org/2000/svg">
<path d="M174 794C194 794 224 752 259 746C279 746 294 788 344 794C379 794 394 752 429 752C464 752 479 794 514 794C549 794 564 752 599 752C634 752 649 794 684 794C719 794 734 752 769 752C804 752 819 794 854 794M242.4 752.2L219.5 708.4L809.5 670.4C763.1 712.6 703.5 746.8 643.2 774.8M454.4 300.4C554.8 331.1 695.2 479.4 743 638.8C716.8 628.5 697.2 618 660.4 627.4C624.8 497.9 561.1 374.2 454.4 300.4ZM267.7 229.5C396.3 284.5 572.7 437.6 605.1 641.5C456.8 581.7 343.9 613.6 265.3 662.1C385.2 509.7 331.4 336.4 267.7 229.5Z" stroke="black" stroke-width="18" stroke-linecap="round" stroke-linejoin="round"/>
<path d="M171 797C191 797 221 755 256 749C276 749 291 791 341 797C376 797 391 755 426 755C461 755 476 797 511 797C546 797 561 755 596 755C631 755 646 797 681 797C716 797 731 755 766 755C801 755 816 797 851 797M239.4 755.2L216.5 711.4L806.5 673.4C760.1 715.6 700.5 749.8 640.2 777.8M451.4 303.4C551.8 334.1 692.2 482.4 740 641.8C713.8 631.5 694.2 621 657.4 630.4C621.8 500.9 558.1 377.2 451.4 303.4ZM264.7 232.5C393.3 287.5 569.7 440.6 602.1 644.5C453.8 584.7 340.9 616.6 262.3 665.1C382.2 512.7 328.4 339.4 264.7 232.5Z" stroke="black" stroke-width="18" stroke-linecap="round" stroke-linejoin="round"/>
<path d="M177 797C197 797 227 755 262 749C282 749 297 791 347 797C382 797 397 755 432 755C467 755 482 797 517 797C552 797 567 755 602 755C637 755 652 797 687 797C722 797 737 755 772 755C807 755 822 797 857 797M245.4 755.2L222.5 711.4L812.5 673.4C766.1 715.6 706.5 749.8 646.2 777.8M457.4 303.4C557.8 334.1 698.2 482.4 746 641.8C719.8 631.5 700.2 621 663.4 630.4C627.8 500.9 564.1 377.2 457.4 303.4ZM270.7 232.5C399.3 287.5 575.7 440.6 608.1 644.5C459.8 584.7 346.9 616.6 268.3 665.1C388.2 512.7 334.4 339.4 270.7 232.5Z" stroke="black" stroke-width="18" stroke-linecap="round" stroke-linejoin="round"/>
<path d="M177 791C197 791 227 749 262 743C282 743 297 785 347 791C382 791 397 749 432 749C467 749 482 791 517 791C552 791 567 749 602 749C637 749 652 791 687 791C722 791 737 749 772 749C807 749 822 791 857 791M245.4 749.2L222.5 705.4L812.5 667.4C766.1 709.6 706.5 743.8 646.2 771.8M457.4 297.4C557.8 328.1 698.2 476.4 746 635.8C719.8 625.5 700.2 615 663.4 624.4C627.8 494.9 564.1 371.2 457.4 297.4ZM270.7 226.5C399.3 281.5 575.7 434.6 608.1 638.5C459.8 578.7 346.9 610.6 268.3 659.1C388.2 506.7 334.4 333.4 270.7 226.5Z" stroke="black" stroke-width="18" stroke-linecap="round" stroke-linejoin="round"/>
<path d="M171 791C191 791 221 749 256 743C276 743 291 785 341 791C376 791 391 749 426 749C461 749 476 791 511 791C546 791 561 749 596 749C631 749 646 791 681 791C716 791 731 749 766 749C801 749 816 791 851 791M239.4 749.2L216.5 705.4L806.5 667.4C760.1 709.6 700.5 743.8 640.2 771.8M451.4 297.4C551.8 328.1 692.2 476.4 740 635.8C713.8 625.5 694.2 615 657.4 624.4C621.8 494.9 558.1 371.2 451.4 297.4ZM264.7 226.5C393.3 281.5 569.7 434.6 602.1 638.5C453.8 578.7 340.9 610.6 262.3 659.1C382.2 506.7 328.4 333.4 264.7 226.5Z" stroke="black" stroke-width="18" stroke-linecap="round" stroke-linejoin="round"/>
<path d="M170 794C190 794 220 752 255 746C275 746 290 788 340 794C375 794 390 752 425 752C460 752 475 794 510 794C545 794 560 752 595 752C630 752 645 794 680 794C715 794 730 752 765 752C800 752 815 794 850 794M238.4 752.2L215.5 708.4L805.5 670.4C759.1 712.6 699.5 746.8 639.2 774.8M450.4 300.4C550.8 331.1 691.2 479.4 739 638.8C712.8 628.5 693.2 618 656.4 627.4C620.8 497.9 557.1 374.2 450.4 300.4ZM263.7 229.5C392.3 284.5 568.7 437.6 601.1 641.5C452.8 581.7 339.9 613.6 261.3 662.1C381.2 509.7 327.4 336.4 263.7 229.5Z" stroke="black" stroke-width="18" stroke-linecap="round" stroke-linejoin="round"/>
<path d="M178 794C198 794 228 752 263 746C283 746 298 788 348 794C383 794 398 752 433 752C468 752 483 794 518 794C553 794 568 752 603 752C638 752 653 794 688 794C723 794 738 752 773 752C808 752 823 794 858 794M246.4 752.2L223.5 708.4L813.5 670.4C767.1 712.6 707.5 746.8 647.2 774.8M458.4 300.4C558.8 331.1 699.2 479.4 747 638.8C720.8 628.5 701.2 618 664.4 627.4C628.8 497.9 565.1 374.2 458.4 300.4ZM271.7 229.5C400.3 284.5 576.7 437.6 609.1 641.5C460.8 581.7 347.9 613.6 269.3 662.1C389.2 509.7 335.4 336.4 271.7 229.5Z" stroke="black" stroke-width="18" stroke-linecap="round" stroke-linejoin="round"/>
<path d="M174 798C194 798 224 756 259 750C279 750 294 792 344 798C379 798 394 756 429 756C464 756 479 798 514 798C549 798 564 756 599 756C634 756 649 798 684 798C719 798 734 756 769 756C804 756 819 798 854 798M242.4 756.2L219.5 712.4L809.5 674.4C763.1 716.6 703.5 750.8 643.2 778.8M454.4 304.4C554.8 335.1 695.2 483.4 743 642.8C716.8 632.5 697.2 622 660.4 631.4C624.8 501.9 561.1 378.2 454.4 304.4ZM267.7 233.5C396.3 288.5 572.7 441.6 605.1 645.5C456.8 585.7 343.9 617.6 265.3 666.1C385.2 513.7 331.4 340.4 267.7 233.5Z" stroke="black" stroke-width="18" stroke-linecap="round" stroke-linejoin="round"/>
<path d="M174 790C194 790 224 748 259 742C279 742 294 784 344 790C379 790 394 748 429 748C464 748 479 790 514 790C549 790 564 748 599 748C634 748 649 790 684 790C719 790 734 748 769 748C804 748 819 790 854 790M242.4 748.2L219.5 704.4L809.5 666.4C763.1 708.6 703.5 742.8 643.2 770.8M454.4 296.4C554.8 327.1 695.2 475.4 743 634.8C716.8 624.5 697.2 614 660.4 623.4C624.8 493.9 561.1 370.2 454.4 296.4ZM267.7 225.5C396.3 280.5 572.7 433.6 605.1 637.5C456.8 577.7 343.9 609.6 265.3 658.1C385.2 505.7 331.4 332.4 267.7 225.5Z" stroke="black" stroke-width="18" stroke-linecap="round" stroke-linejoin="round"/>
</svg>
