<?xml version="1.0" encoding="UTF-8" standalone="no"?>
<svg version="1.1" width="1024" height="1024" 
	xmlns="http://www.w3.org/2000/svg" 
	xmlns:xlink="http://www.w3.org/1999/xlink">

<g style="fill:none;stroke:black;stroke-width:18px;stroke-linecap:round;stroke-linejoin:round">
  <path id="waves" d="m 174,794 
	c 20,0 50,-42 85,-48 c 20,0 35,42 85,48 
	c 35,0 50,-42 85,-42 c 35,0 50,42 85,42 
	c 35,0 50,-42 85,-42 c 35,0 50,42 85,42 
	c 35,0 50,-42 85,-42 c 35,0 50,42 85,42"/>
  <path id="hull" d="M 242.4,752.2 L 219.5,708.4 L 809.5,670.4 C 763.1,712.6 703.5,746.8 643.2,774.8"/>
  <path id="front_sail" d="M 454.4,300.4 C 554.8,331.1 695.2,479.4 743,638.8 C 716.8,628.5 697.2,618 660.4,627.4 
	C 624.8,497.9 561.1,374.2 454.4,300.4 z"/>
  <path id="rear_sail" d="M 267.7,229.5 C 396.3,284.5 572.7,437.6 605.1,641.5 C 456.8,581.7 343.9,613.6 265.3,662.1 
	C 385.2,509.7 331.4,336.4 267.7,229.5 z"/>
</g>

</svg>